<svg id="Layer_1" enable-background="new 0 0 512 512" height="512" viewBox="0 0 512 512" width="512" xmlns="http://www.w3.org/2000/svg"><g><g><path d="m384 488h-320c-17.673 0-32-14.327-32-32v-288c0-17.673 14.327-32 32-32h320c35.346 0 64 28.654 64 64v224c0 35.346-28.654 64-64 64z" fill="#32283c"/></g><g><path d="m336 488h-272c-17.673 0-32-14.327-32-32v-288c0-17.673 14.327-32 32-32h272c35.346 0 64 28.654 64 64v224c0 35.346-28.654 64-64 64z" fill="#463c4b"/></g><g><path d="m360 272c-4.418 0-8-3.582-8-8v-32c0-4.418 3.582-8 8-8 4.418 0 8 3.582 8 8v32c0 4.418-3.582 8-8 8z" fill="#32283c"/></g><g><path d="m360 400c-4.418 0-8-3.582-8-8v-32c0-4.418 3.582-8 8-8 4.418 0 8 3.582 8 8v32c0 4.418-3.582 8-8 8z" fill="#32283c"/></g><g><path d="m312 448c0 4.418-3.582 8-8 8h-32c-4.418 0-8-3.582-8-8 0-4.418 3.582-8 8-8h32c4.418 0 8 3.582 8 8z" fill="#32283c"/></g><g><path d="m248 448c0 4.418-3.582 8-8 8h-32c-4.418 0-8-3.582-8-8 0-4.418 3.582-8 8-8h32c4.418 0 8 3.582 8 8z" fill="#32283c"/></g><g><path d="m184 448c0 4.418-3.582 8-8 8h-32c-4.418 0-8-3.582-8-8 0-4.418 3.582-8 8-8h32c4.418 0 8 3.582 8 8z" fill="#32283c"/></g><g><path d="m120 448c0 4.418-3.582 8-8 8h-32c-4.418 0-8-3.582-8-8 0-4.418 3.582-8 8-8h32c4.418 0 8 3.582 8 8z" fill="#32283c"/></g><g><path d="m48 440h-16v16h16c4.418 0 8-3.582 8-8s-3.582-8-8-8z" fill="#32283c"/></g><g><path d="m312 176c0 4.418-3.582 8-8 8h-32c-4.418 0-8-3.582-8-8 0-4.418 3.582-8 8-8h32c4.418 0 8 3.582 8 8z" fill="#32283c"/></g><g><path d="m248 176c0 4.418-3.582 8-8 8h-32c-4.418 0-8-3.582-8-8 0-4.418 3.582-8 8-8h32c4.418 0 8 3.582 8 8z" fill="#32283c"/></g><g><path d="m184 176c0 4.418-3.582 8-8 8h-32c-4.418 0-8-3.582-8-8 0-4.418 3.582-8 8-8h32c4.418 0 8 3.582 8 8z" fill="#32283c"/></g><g><path d="m120 176c0 4.418-3.582 8-8 8h-32c-4.418 0-8-3.582-8-8 0-4.418 3.582-8 8-8h32c4.418 0 8 3.582 8 8z" fill="#32283c"/></g><g><path d="m48 168h-16v16h16c4.418 0 8-3.582 8-8s-3.582-8-8-8z" fill="#32283c"/></g><g><path d="m464 360h-112c-26.51 0-48-21.49-48-48 0-26.51 21.49-48 48-48h112c8.837 0 16 7.163 16 16v64c0 8.837-7.163 16-16 16z" fill="#cd3232"/></g><g><path d="m416 360h-64c-26.51 0-48-21.49-48-48 0-26.51 21.49-48 48-48h64c8.837 0 16 7.163 16 16v64c0 8.837-7.163 16-16 16z" fill="#ff4646"/></g><g><circle cx="352" cy="312" fill="#cd3232" r="32"/></g><g><circle cx="352" cy="312" fill="#faa037" r="16"/></g><g><path d="m336 168c-4.418 0-8 3.582-8 8s3.582 8 8 8c8.84 0 16 7.16 16 16 0 4.418 3.582 8 8 8s8-3.582 8-8c0-17.67-14.33-32-32-32z" fill="#32283c"/></g><g><path d="m336 456c-4.418 0-8-3.582-8-8s3.582-8 8-8c8.84 0 16-7.16 16-16 0-4.418 3.582-8 8-8s8 3.582 8 8c0 17.67-14.33 32-32 32z" fill="#32283c"/></g><g><path d="m128 136 106.343-106.343c3.622-3.622 8.535-5.657 13.657-5.657 5.122 0 10.035 2.035 13.657 5.657l106.343 106.343z" fill="#466932"/></g><g><path d="m96 136 106.343-106.343c3.622-3.622 8.535-5.657 13.657-5.657 5.122 0 10.035 2.035 13.657 5.657l106.343 106.343z" fill="#78af41"/></g><g><path d="m199.029 71.029-.201-.201c-1.562-1.562-4.095-1.562-5.657 0l-65.171 65.172h176l-65.172-65.172c-1.562-1.562-4.095-1.562-5.657 0l-.201.201c-9.372 9.373-24.568 9.373-33.941 0z" fill="#466932"/></g></g></svg>